<mxfile host="Electron" agent="Mozilla/5.0 (Windows NT 10.0; Win64; x64) AppleWebKit/537.36 (KHTML, like Gecko) draw.io/24.7.17 Chrome/128.0.6613.36 Electron/32.0.1 Safari/537.36" version="24.7.17">
  <diagram name="Page-1" id="NMLczV99LGKHN2gWFQF6">
    <mxGraphModel dx="1098" dy="653" grid="1" gridSize="10" guides="1" tooltips="1" connect="1" arrows="1" fold="1" page="1" pageScale="1" pageWidth="850" pageHeight="1100" math="0" shadow="0">
      <root>
        <mxCell id="0" />
        <mxCell id="1" parent="0" />
        <mxCell id="CbHVNIPqDSNuQUF_EkJj-20" value="" style="rounded=0;whiteSpace=wrap;html=1;" vertex="1" parent="1">
          <mxGeometry x="82.5" y="180" width="700" height="300" as="geometry" />
        </mxCell>
        <mxCell id="CbHVNIPqDSNuQUF_EkJj-1" value="База данных" style="shape=cylinder3;whiteSpace=wrap;html=1;boundedLbl=1;backgroundOutline=1;size=15;" vertex="1" parent="1">
          <mxGeometry x="390" y="240" width="85" height="120" as="geometry" />
        </mxCell>
        <mxCell id="CbHVNIPqDSNuQUF_EkJj-2" value="Подсистема&lt;br&gt;управления курсами" style="rounded=0;whiteSpace=wrap;html=1;" vertex="1" parent="1">
          <mxGeometry x="160" y="200" width="120" height="60" as="geometry" />
        </mxCell>
        <mxCell id="CbHVNIPqDSNuQUF_EkJj-3" value="Подсистема&lt;br&gt;учета пользователей" style="rounded=0;whiteSpace=wrap;html=1;" vertex="1" parent="1">
          <mxGeometry x="160" y="290" width="120" height="60" as="geometry" />
        </mxCell>
        <mxCell id="CbHVNIPqDSNuQUF_EkJj-4" value="Подсистема обучения" style="rounded=0;whiteSpace=wrap;html=1;" vertex="1" parent="1">
          <mxGeometry x="570" y="200" width="120" height="60" as="geometry" />
        </mxCell>
        <mxCell id="CbHVNIPqDSNuQUF_EkJj-5" value="Подсистема тестирования" style="rounded=0;whiteSpace=wrap;html=1;" vertex="1" parent="1">
          <mxGeometry x="570" y="290" width="120" height="60" as="geometry" />
        </mxCell>
        <mxCell id="CbHVNIPqDSNuQUF_EkJj-6" value="Подсистема аналитики" style="rounded=0;whiteSpace=wrap;html=1;" vertex="1" parent="1">
          <mxGeometry x="160" y="380" width="120" height="60" as="geometry" />
        </mxCell>
        <mxCell id="CbHVNIPqDSNuQUF_EkJj-7" value="Подсистема общения" style="rounded=0;whiteSpace=wrap;html=1;" vertex="1" parent="1">
          <mxGeometry x="570" y="380" width="120" height="60" as="geometry" />
        </mxCell>
        <mxCell id="CbHVNIPqDSNuQUF_EkJj-9" value="Преподаватель" style="rounded=0;whiteSpace=wrap;html=1;" vertex="1" parent="1">
          <mxGeometry x="570" y="90" width="120" height="60" as="geometry" />
        </mxCell>
        <mxCell id="CbHVNIPqDSNuQUF_EkJj-10" value="" style="endArrow=classic;html=1;rounded=0;exitX=0.5;exitY=1;exitDx=0;exitDy=0;entryX=0.5;entryY=0;entryDx=0;entryDy=0;" edge="1" parent="1" source="CbHVNIPqDSNuQUF_EkJj-9" target="CbHVNIPqDSNuQUF_EkJj-4">
          <mxGeometry width="50" height="50" relative="1" as="geometry">
            <mxPoint x="720" y="240" as="sourcePoint" />
            <mxPoint x="770" y="190" as="targetPoint" />
          </mxGeometry>
        </mxCell>
        <mxCell id="CbHVNIPqDSNuQUF_EkJj-11" value="" style="endArrow=classic;html=1;rounded=0;exitX=0.5;exitY=1;exitDx=0;exitDy=0;entryX=0.5;entryY=0;entryDx=0;entryDy=0;" edge="1" parent="1" source="CbHVNIPqDSNuQUF_EkJj-4" target="CbHVNIPqDSNuQUF_EkJj-5">
          <mxGeometry width="50" height="50" relative="1" as="geometry">
            <mxPoint x="720" y="330" as="sourcePoint" />
            <mxPoint x="770" y="280" as="targetPoint" />
          </mxGeometry>
        </mxCell>
        <mxCell id="CbHVNIPqDSNuQUF_EkJj-12" value="" style="endArrow=classic;html=1;rounded=0;exitX=0.5;exitY=1;exitDx=0;exitDy=0;entryX=0.5;entryY=0;entryDx=0;entryDy=0;" edge="1" parent="1" source="CbHVNIPqDSNuQUF_EkJj-5" target="CbHVNIPqDSNuQUF_EkJj-7">
          <mxGeometry width="50" height="50" relative="1" as="geometry">
            <mxPoint x="750" y="410" as="sourcePoint" />
            <mxPoint x="800" y="360" as="targetPoint" />
          </mxGeometry>
        </mxCell>
        <mxCell id="CbHVNIPqDSNuQUF_EkJj-13" value="" style="endArrow=classic;html=1;rounded=0;exitX=0.5;exitY=1;exitDx=0;exitDy=0;entryX=0.5;entryY=0;entryDx=0;entryDy=0;" edge="1" parent="1" source="CbHVNIPqDSNuQUF_EkJj-2" target="CbHVNIPqDSNuQUF_EkJj-3">
          <mxGeometry width="50" height="50" relative="1" as="geometry">
            <mxPoint x="310" y="340" as="sourcePoint" />
            <mxPoint x="360" y="290" as="targetPoint" />
          </mxGeometry>
        </mxCell>
        <mxCell id="CbHVNIPqDSNuQUF_EkJj-14" value="" style="endArrow=classic;html=1;rounded=0;exitX=0.5;exitY=1;exitDx=0;exitDy=0;entryX=0.5;entryY=0;entryDx=0;entryDy=0;" edge="1" parent="1" source="CbHVNIPqDSNuQUF_EkJj-3" target="CbHVNIPqDSNuQUF_EkJj-6">
          <mxGeometry width="50" height="50" relative="1" as="geometry">
            <mxPoint x="400" y="410" as="sourcePoint" />
            <mxPoint x="450" y="360" as="targetPoint" />
          </mxGeometry>
        </mxCell>
        <mxCell id="CbHVNIPqDSNuQUF_EkJj-15" value="Администратор" style="rounded=0;whiteSpace=wrap;html=1;" vertex="1" parent="1">
          <mxGeometry x="160" y="90" width="120" height="60" as="geometry" />
        </mxCell>
        <mxCell id="CbHVNIPqDSNuQUF_EkJj-16" value="" style="endArrow=classic;html=1;rounded=0;exitX=0.5;exitY=1;exitDx=0;exitDy=0;entryX=0.5;entryY=0;entryDx=0;entryDy=0;" edge="1" parent="1" source="CbHVNIPqDSNuQUF_EkJj-15" target="CbHVNIPqDSNuQUF_EkJj-2">
          <mxGeometry width="50" height="50" relative="1" as="geometry">
            <mxPoint x="260" y="160" as="sourcePoint" />
            <mxPoint x="360" y="130" as="targetPoint" />
          </mxGeometry>
        </mxCell>
        <mxCell id="CbHVNIPqDSNuQUF_EkJj-17" value="Ученик" style="rounded=0;whiteSpace=wrap;html=1;" vertex="1" parent="1">
          <mxGeometry x="365" y="90" width="120" height="60" as="geometry" />
        </mxCell>
        <mxCell id="CbHVNIPqDSNuQUF_EkJj-19" value="" style="endArrow=none;html=1;rounded=0;exitX=0.5;exitY=1;exitDx=0;exitDy=0;" edge="1" parent="1" source="CbHVNIPqDSNuQUF_EkJj-17">
          <mxGeometry width="50" height="50" relative="1" as="geometry">
            <mxPoint x="440" y="210" as="sourcePoint" />
            <mxPoint x="630" y="170" as="targetPoint" />
            <Array as="points">
              <mxPoint x="425" y="170" />
            </Array>
          </mxGeometry>
        </mxCell>
        <mxCell id="CbHVNIPqDSNuQUF_EkJj-23" value="" style="endArrow=classic;html=1;rounded=0;exitX=1;exitY=0.5;exitDx=0;exitDy=0;entryX=0;entryY=0;entryDx=0;entryDy=37.5;entryPerimeter=0;" edge="1" parent="1" source="CbHVNIPqDSNuQUF_EkJj-2" target="CbHVNIPqDSNuQUF_EkJj-1">
          <mxGeometry width="50" height="50" relative="1" as="geometry">
            <mxPoint x="330" y="340" as="sourcePoint" />
            <mxPoint x="380" y="290" as="targetPoint" />
          </mxGeometry>
        </mxCell>
        <mxCell id="CbHVNIPqDSNuQUF_EkJj-24" value="" style="endArrow=classic;html=1;rounded=0;exitX=1;exitY=0.5;exitDx=0;exitDy=0;entryX=0;entryY=0.5;entryDx=0;entryDy=0;entryPerimeter=0;" edge="1" parent="1" source="CbHVNIPqDSNuQUF_EkJj-3" target="CbHVNIPqDSNuQUF_EkJj-1">
          <mxGeometry width="50" height="50" relative="1" as="geometry">
            <mxPoint x="310" y="330" as="sourcePoint" />
            <mxPoint x="360" y="280" as="targetPoint" />
          </mxGeometry>
        </mxCell>
        <mxCell id="CbHVNIPqDSNuQUF_EkJj-25" value="" style="endArrow=classic;html=1;rounded=0;exitX=1;exitY=0.5;exitDx=0;exitDy=0;entryX=0;entryY=0;entryDx=0;entryDy=82.5;entryPerimeter=0;" edge="1" parent="1" source="CbHVNIPqDSNuQUF_EkJj-6" target="CbHVNIPqDSNuQUF_EkJj-1">
          <mxGeometry width="50" height="50" relative="1" as="geometry">
            <mxPoint x="300" y="420" as="sourcePoint" />
            <mxPoint x="350" y="370" as="targetPoint" />
          </mxGeometry>
        </mxCell>
        <mxCell id="CbHVNIPqDSNuQUF_EkJj-26" value="" style="endArrow=classic;html=1;rounded=0;exitX=0;exitY=0.5;exitDx=0;exitDy=0;entryX=1;entryY=0;entryDx=0;entryDy=37.5;entryPerimeter=0;" edge="1" parent="1" source="CbHVNIPqDSNuQUF_EkJj-4" target="CbHVNIPqDSNuQUF_EkJj-1">
          <mxGeometry width="50" height="50" relative="1" as="geometry">
            <mxPoint x="510" y="260" as="sourcePoint" />
            <mxPoint x="560" y="210" as="targetPoint" />
          </mxGeometry>
        </mxCell>
        <mxCell id="CbHVNIPqDSNuQUF_EkJj-27" value="" style="endArrow=classic;html=1;rounded=0;exitX=0;exitY=0.5;exitDx=0;exitDy=0;entryX=1;entryY=0.5;entryDx=0;entryDy=0;entryPerimeter=0;" edge="1" parent="1" source="CbHVNIPqDSNuQUF_EkJj-5" target="CbHVNIPqDSNuQUF_EkJj-1">
          <mxGeometry width="50" height="50" relative="1" as="geometry">
            <mxPoint x="450" y="380" as="sourcePoint" />
            <mxPoint x="500" y="330" as="targetPoint" />
          </mxGeometry>
        </mxCell>
        <mxCell id="CbHVNIPqDSNuQUF_EkJj-28" value="" style="endArrow=classic;html=1;rounded=0;exitX=0;exitY=0.5;exitDx=0;exitDy=0;entryX=1;entryY=0;entryDx=0;entryDy=82.5;entryPerimeter=0;" edge="1" parent="1" source="CbHVNIPqDSNuQUF_EkJj-7" target="CbHVNIPqDSNuQUF_EkJj-1">
          <mxGeometry width="50" height="50" relative="1" as="geometry">
            <mxPoint x="440" y="400" as="sourcePoint" />
            <mxPoint x="490" y="350" as="targetPoint" />
          </mxGeometry>
        </mxCell>
        <mxCell id="CbHVNIPqDSNuQUF_EkJj-29" value="" style="endArrow=classic;html=1;rounded=0;exitX=1;exitY=0.25;exitDx=0;exitDy=0;entryX=0;entryY=0.25;entryDx=0;entryDy=0;" edge="1" parent="1" source="CbHVNIPqDSNuQUF_EkJj-2" target="CbHVNIPqDSNuQUF_EkJj-4">
          <mxGeometry width="50" height="50" relative="1" as="geometry">
            <mxPoint x="360" y="220" as="sourcePoint" />
            <mxPoint x="410" y="170" as="targetPoint" />
          </mxGeometry>
        </mxCell>
      </root>
    </mxGraphModel>
  </diagram>
</mxfile>
